<?xml version="1.0" encoding="utf-8"?>
<!-- Generator: Adobe Illustrator 19.0.0, SVG Export Plug-In . SVG Version: 6.00 Build 0)  -->
<svg version="1.1" id="Layer_1" xmlns="http://www.w3.org/2000/svg" xmlns:xlink="http://www.w3.org/1999/xlink" x="0px" y="0px"
	 viewBox="0 0 200 200" style="enable-background:new 0 0 200 200;" xml:space="preserve">
<style type="text/css">
	.st0{fill-rule:evenodd;clip-rule:evenodd;fill:#0F1011;}
</style>
<path id="XMLID_2_" class="st0" d="M46.5,98.3c0,0.6-0.4,1-1,1H26.7c-0.4,0-1-0.4-1-1V53c0-0.6,0.6-1,1-1h18.8c0.6,0,1,0.4,1,1v9.5
	h6V49.7c0-2.2-1.6-3.8-3.7-3.8H23.3c-2.1,0-3.7,1.6-3.7,3.8v52c0,2.1,1.6,3.7,3.7,3.7h8.1v57.7c0,0.1,0,0.1,0,0.3h9.5
	c0-0.1,0-0.1,0-0.3v-57.7h7.9c2.1,0,3.8-1.6,3.8-3.7V83.2h-6.2V98.3z M124.9,59.8c6.3-1.9,9.8-8.6,7.9-14.8
	c-2.1-6.3-8.6-9.8-14.9-7.8c-6.2,1.9-9.7,8.5-7.8,14.8C112,58.3,118.7,61.7,124.9,59.8L124.9,59.8z M176.4,104.8
	c-9.4-1.5-20.8-3.7-23.3-4.5c-1.3-0.9-8.8-8.4-8.8-8.4l-5.7-21c6.4,1.3,8.5,5.1,11.3,12.6c0.7,1.9,2.6,3.1,4.7,2.9
	c0.4,0,0.9-0.1,1.2-0.3c2.5-0.9,3.7-3.5,2.8-5.9c-7.9-24.8-34.4-18.6-34.4-18.6c-9.4,1.6-17.6,0-18.3-1c-0.9-1-1.6-7.2-5-14.5
	c-0.1-0.3-11.1-17.9-9.5,1.9c1.6,11.4,6.3,17.4,7.8,18.9c2.8,3.1,9.7,4.5,17,4.5v0.1l8.1,26.4c0,0,0,15.1,0.7,18.9
	c0.4,1.6,1.3,5.9,19.6,20.5c1.3,1,2.8,1.5,4.4,1.3c1.5-0.1,2.9-0.9,4.1-2.2c2.1-2.6,1.6-6.3-1-8.5c-6.3-5-15.5-14.2-15.5-14.2
	s-0.3-6.7-0.1-11.9c0-0.6,0.9-0.9,1.2-0.4c1,1,7.8,7.9,10.1,9.2c3.8,1.9,18.6,4.4,27.1,5.7c0.4,0.1,0.9,0.1,1.5,0.1
	c2.6-0.3,4.8-2.3,5.3-5C182,108.3,179.7,105.3,176.4,104.8L176.4,104.8z M97.8,71.1H51.6v1.3h-4V76h4v1.6H55L58,95.8V96h0.1
	l2.9,17.4h1.5l-1-6.3l1.2-0.9L68,110l-2,1.9v1.6l3.4-2.6l4.4,2.8l0.1-1.3l-3.4-2.3l4.4-3.1l4.7,3.1l-2.1,1.6l-0.3,2.1l3.7-2.8
	l3.1,2.3v-1.8l-1.8-1.5l4.8-3.2l1,0.7l-0.9,5.6h1.5l5.9-35.5h3.2V71.1z M65.4,77.6h4.7l2.9,1.9l-5,3.5l-5.4-3.7L65.4,77.6z
	 M61.3,78.5l-1.3-0.9h2.8L61.3,78.5z M75.6,79.7l2.9-2.1h4.2l2.9,2.1l-5,3.5L75.6,79.7z M79.4,84.1l-5,3.5L69.2,84l5.1-3.4
	L79.4,84.1z M74.3,78.7l-1.6-1h3.4L74.3,78.7z M73.1,88.5L68,92l-5.3-3.5L68,85L73.1,88.5z M68,93.8l4.8,3.4l-5,3.5l-5-3.4L68,93.8z
	 M69.3,92.9l5.1-3.5l4.5,3.2l-5,3.7L69.3,92.9z M80.3,93.5l5.4,3.8l-5,3.5l-5.4-3.7L80.3,93.5z M80.3,91.7l-4.7-3.2l5.1-3.5l4.5,3.1
	L80.3,91.7z M81.9,84.1l5.1-3.5l4.4,3.1l-5,3.5L81.9,84.1z M85.4,77.6h3.2l-1.6,1L85.4,77.6z M56.3,77.6h1l2.8,1.8L57,81.6
	L56.3,77.6z M57.3,83.1l4-2.8l5.4,3.7l-5.3,3.7L57.6,85L57.3,83.1z M57.9,86.9l2.3,1.6l-1.8,1.2L57.9,86.9z M58.6,91l0.1,0.1
	l2.6-1.8l5.3,3.5l-5.1,3.5l-2.2-1.5L58.6,91z M59.8,97l0.4,0.4l-0.4,0.3V97z M61.3,105.5l-0.1-0.4l0.3,0.3L61.3,105.5z M62.7,104.3
	l-1.9-1.3l-0.7-3.7l1.6-1l5,3.2L62.7,104.3z M69.3,109.2l-5.3-3.8l4-2.9l5.6,3.7L69.3,109.2z M74.7,105.2l-5.6-3.7L74,98l5.6,3.7
	L74.7,105.2z M80.9,109.2l-4.8-3.1l4.8-3.5l4.8,3.4L80.9,109.2z M88.4,106.1v-0.1l0,0V106.1z M88.7,103.9L88.7,103.9l-1.6,1.2
	l-5-3.4l5-3.5l2.3,1.6L88.7,103.9z M89.7,98.2l-1.3-1L90,96L89.7,98.2z M90.4,93.9l-3.4,2.3l-5.4-3.7l4.8-3.5l4.3,2.9L90.4,93.9z
	 M91,90.4l-3.2-2.3l4.1-2.9L91,90.4z M92.3,82.3l-4-2.6l2.9-2.1h1.8L92.3,82.3z M85,57.3c0,5.1-4.1,9.2-9.2,9.2
	c-5,0-9.1-4.1-9.1-9.2c0-5,4.1-9.1,9.1-9.1C80.9,48.2,85,52.3,85,57.3L85,57.3z"/>
</svg>
