<?xml version="1.0" encoding="utf-8"?>
<!-- Generator: Adobe Illustrator 19.0.0, SVG Export Plug-In . SVG Version: 6.00 Build 0)  -->
<svg version="1.1" id="Layer_1" xmlns="http://www.w3.org/2000/svg" xmlns:xlink="http://www.w3.org/1999/xlink" x="0px" y="0px"
	 viewBox="0 0 200 200" style="enable-background:new 0 0 200 200;" xml:space="preserve">
<style type="text/css">
	.st0{fill-rule:evenodd;clip-rule:evenodd;}
</style>
<path id="XMLID_2_" class="st0" d="M74.8,58.7V40.4l0,0h3.4H84h33.3h5.8h4.2l0,0v18.3c-3.7,0.8-6.5,4.1-6.5,8.1c0,2.6,1.2,5,3.3,6.5
	c-0.1,0.1-0.1,0.4-0.3,0.5l-6.5,16.8l-8,5.8c1.1-1.6,1.8-3.5,1.8-5.6c0-5.3-4.2-9.5-9.5-9.5c-5.2,0-9.4,4.2-9.4,9.5l0,0
	c0,3.8,2.2,7.1,5.6,8.6h-1.5c0,0,0,0-0.1,0l-12.5-8.8l-6.4-16.7c2.4-1.5,4.2-4.2,4.2-7.2C81.4,62.8,78.6,59.6,74.8,58.7L74.8,58.7z
	 M71.4,40.4L71.4,40.4v18.3c-3.7,0.8-6.5,4.1-6.5,8.1c0,3.7,2.4,6.9,5.8,7.9c0,0.5,0.1,1.1,0.3,1.6l6.8,17.8
	c0.3,0.5,0.7,1.1,1.2,1.5l14.7,10.5v28.4c0,1,0.4,3.3-0.7,5.4l-10.6,20.5c-0.8,1.6-0.3,3.7,1.4,4.5c0.5,0.3,1.1,0.4,1.5,0.4
	c1.2,0,2.4-0.7,3-1.9L99.9,141c0.1,0.1,0.4,0.1,0.5,0.1c0.3,0,0.4,0,0.7-0.1l11.7,22.4c0.5,1.2,1.6,1.9,2.8,1.9
	c0.5,0,1.1-0.1,1.6-0.4c1.6-0.8,2.2-2.8,1.4-4.5L108,139.9c-1.1-2.2-0.7-4.5-0.7-5.4v-28.4L122,95.7c0.5-0.4,1-0.9,1.2-1.5l6.8-17.8
	c0.1-0.5,0.3-1,0.1-1.4c4.1-0.5,7.2-4.1,7.2-8.1c0-4.1-2.9-7.3-6.7-8.1V40.4l0,0h8.6h9.8c6.2,0,11.1,5,11.1,11.1v112.5
	c0,2.4,2,4.5,4.5,4.5c2.6,0,4.6-2,4.6-4.5V51.6c0-11.1-9.1-20.1-20.2-20.1H52.3c-11.1,0-20.2,9-20.2,20.1v112.5c0,2.4,2,4.5,4.6,4.5
	c2.4,0,4.5-2,4.5-4.5V51.6c0-6.1,5-11.1,11.1-11.1h10.6H71.4z M129.1,71.8c-2.7,0-4.9-2.2-4.9-4.9c0-2.7,2.2-5,4.9-5
	c2.7,0,4.9,2.3,4.9,5C134,69.6,131.8,71.8,129.1,71.8L129.1,71.8z M73.2,71.8c-2.7,0-4.9-2.2-4.9-4.9c0-2.7,2.2-5,4.9-5
	c2.7,0,4.9,2.3,4.9,5C78,69.6,75.9,71.8,73.2,71.8L73.2,71.8z"/>
</svg>
