<?xml version="1.0" encoding="utf-8"?>
<!-- Generator: Adobe Illustrator 19.0.0, SVG Export Plug-In . SVG Version: 6.00 Build 0)  -->
<svg version="1.1" id="Layer_1" xmlns="http://www.w3.org/2000/svg" xmlns:xlink="http://www.w3.org/1999/xlink" x="0px" y="0px"
	 viewBox="0 0 200 200" style="enable-background:new 0 0 200 200;" xml:space="preserve">
<style type="text/css">
	.st0{fill-rule:evenodd;clip-rule:evenodd;fill:#221F20;}
</style>
<path id="XMLID_2_" class="st0" d="M143.2,49.5H56.6c-18.7,0-34.1,15.1-34.1,34.1v32.8c0,18.9,15.3,34.1,34.1,34.1h86.6
	c18.9,0,34.1-15.1,34.1-34.1V83.6C177.3,64.7,162.1,49.5,143.2,49.5L143.2,49.5z M97.4,108.2c-3.6-1.3-6.1-4.4-6.1-8.2
	c0-3.8,2.5-7.2,6.1-8.2V108.2z M102.6,91.8c3.6,1,5.9,4.4,5.9,8.2c0,3.8-2.3,6.9-5.9,8.2V91.8z M28,116.4V83.6
	c0-9.2,4.4-17.5,11.1-22.7v78.2C32.4,133.9,28,125.7,28,116.4L28,116.4z M44.4,142.5v-31.8c5.3-1,9-5.9,9-11.4
	c0-5.7-3.8-10.3-9-11.6V57.5c3.8-1.7,8-2.7,12.2-2.7h40.8v31.5C90.8,87.6,86,93.3,86,100s4.8,12.4,11.4,13.7v31.5H56.6
	C52.3,145.2,48.1,144.2,44.4,142.5L44.4,142.5z M102.6,145.2v-31.5c6.5-1.3,11.4-6.9,11.4-13.7s-4.8-12.4-11.4-13.7V54.8h40.6
	c4.4,0,8.6,1,12.2,2.7v30.3c-5.1,1.3-9,5.9-9,11.6c0,5.5,4,10.3,9,11.4v31.8c-3.6,1.7-7.8,2.7-12.2,2.7H102.6L102.6,145.2z
	 M172,116.4c0,9.3-4.4,17.5-11.1,22.7V60.9c6.7,5.3,11.1,13.5,11.1,22.7V116.4z"/>
</svg>
