<?xml version="1.0" encoding="utf-8"?>
<!-- Generator: Adobe Illustrator 19.0.0, SVG Export Plug-In . SVG Version: 6.00 Build 0)  -->
<svg version="1.1" id="Layer_1" xmlns="http://www.w3.org/2000/svg" xmlns:xlink="http://www.w3.org/1999/xlink" x="0px" y="0px"
	 viewBox="0 0 200 200" style="enable-background:new 0 0 200 200;" xml:space="preserve">
<style type="text/css">
	.st0{fill-rule:evenodd;clip-rule:evenodd;fill:#010002;}
</style>
<path id="XMLID_2_" class="st0" d="M113.8,111.8v4.5c27.4,1.5,47.9,7.6,47.9,14.8c0,8.4-27.3,15.3-60.9,15.3c-33.7,0-61-6.9-61-15.3
	c0-7.3,20.6-13.4,47.9-14.8v-4.5c-32.2,1.8-56.6,10.8-56.6,21.4c0,12,31.2,21.8,69.7,21.8c38.5,0,69.6-9.8,69.6-21.8
	C170.4,122.5,146,113.6,113.8,111.8L113.8,111.8z M99.5,45v21.3V130h3.4v-47l42.4-18.3L99.5,45z"/>
</svg>
