<?xml version="1.0" encoding="utf-8"?>
<!-- Generator: Adobe Illustrator 19.0.0, SVG Export Plug-In . SVG Version: 6.00 Build 0)  -->
<svg version="1.1" id="Layer_1" xmlns="http://www.w3.org/2000/svg" xmlns:xlink="http://www.w3.org/1999/xlink" x="0px" y="0px"
	 viewBox="0 0 200 200" style="enable-background:new 0 0 200 200;" xml:space="preserve">
<style type="text/css">
	.st0{fill-rule:evenodd;clip-rule:evenodd;}
</style>
<path id="XMLID_2_" class="st0" d="M119.6,65.7c5.7,2,12-1,14-6.7c2-5.7-1.2-11.9-6.9-13.9c-5.6-1.9-11.9,1.1-13.8,6.8
	C110.9,57.6,114,63.8,119.6,65.7L119.6,65.7z M87.8,129.3c0-16.5-13.3-29.8-29.8-29.8c-16.4,0-29.8,13.3-29.8,29.8
	c0,16.5,13.4,29.8,29.8,29.8C74.4,159.1,87.8,145.8,87.8,129.3L87.8,129.3z M58,100.4c3.9,0,7.6,0.8,11,2.3c3.6,1.5,6.8,3.5,9.4,6.2
	c2.7,2.7,4.8,5.9,6.3,9.4c1.5,3.4,2.2,7.1,2.2,11c0,3.9-0.7,7.6-2.2,11c-1.5,3.6-3.6,6.8-6.3,9.5c-2.7,2.7-5.8,4.8-9.4,6.3
	c-3.4,1.3-7.1,2.2-11,2.2s-7.6-0.8-11-2.2c-3.5-1.5-6.8-3.6-9.3-6.3c-2.7-2.7-4.8-5.8-6.3-9.5c-1.5-3.4-2.2-7.1-2.2-11
	c0-3.9,0.7-7.6,2.2-11c1.5-3.5,3.6-6.8,6.3-9.4c2.5-2.7,5.8-4.7,9.3-6.2C50.3,101.2,54.1,100.4,58,100.4L58,100.4z M74.3,113.1
	c-2.2-2.2-4.7-3.9-7.5-5.1c-2.7-1.1-5.7-1.7-8.8-1.7c-3.2,0-6.1,0.6-8.7,1.7c-2.9,1.2-5.3,2.9-7.5,5.1c-2.2,2.1-3.9,4.6-5,7.4
	c-1.2,2.8-1.8,5.7-1.8,8.8c0,3.2,0.6,6.2,1.8,8.8c1.1,2.8,2.8,5.3,5,7.5c4.1,4.1,9.9,6.7,16.2,6.7c3.1,0,6.2-0.6,8.8-1.7
	c2.8-1.2,5.3-2.9,7.5-5c2.1-2.2,3.8-4.7,5-7.5c1.1-2.7,1.7-5.7,1.7-8.8c0-3.2-0.6-6.1-1.7-8.8C78.1,117.7,76.4,115.1,74.3,113.1
	L74.3,113.1z M143.6,159.1c16.5,0,29.8-13.3,29.8-29.8c0-16.5-13.3-29.8-29.8-29.8s-29.8,13.3-29.8,29.8
	C113.8,145.8,127.1,159.1,143.6,159.1L143.6,159.1z M143.6,100.4c3.9,0,7.6,0.8,11,2.3c3.5,1.5,6.8,3.5,9.4,6.2
	c2.5,2.7,4.7,5.9,6.2,9.4c1.4,3.4,2.2,7.1,2.2,11c0,3.9-0.7,7.6-2.2,11c-1.5,3.6-3.6,6.8-6.2,9.5c-2.7,2.7-5.9,4.8-9.4,6.3
	c-3.4,1.3-7.1,2.2-11,2.2c-3.9,0-7.6-0.8-11-2.2c-3.6-1.5-6.8-3.6-9.4-6.3c-2.7-2.7-4.8-5.8-6.3-9.5c-1.3-3.4-2.2-7.1-2.2-11
	c0-3.9,0.8-7.6,2.2-11c1.4-3.5,3.6-6.8,6.3-9.4c2.7-2.7,5.8-4.7,9.4-6.2C136,101.2,139.7,100.4,143.6,100.4L143.6,100.4z
	 M159.8,113.1c-2.1-2.2-4.6-3.9-7.4-5.1c-2.8-1.1-5.7-1.7-8.8-1.7c-3.2,0-6.2,0.6-8.8,1.7c-2.8,1.2-5.3,2.9-7.5,5.1
	c-2.1,2.1-3.8,4.6-5,7.4c-1.1,2.8-1.7,5.7-1.7,8.8c0,3.2,0.6,6.2,1.7,8.8c1.2,2.8,2.9,5.3,5,7.5c4.2,4.1,9.9,6.7,16.4,6.7
	c3.1,0,6.1-0.6,8.8-1.7c2.8-1.2,5.3-2.9,7.4-5c2.2-2.2,3.9-4.7,5.1-7.5c1.1-2.7,1.7-5.7,1.7-8.8c0-3.2-0.6-6.1-1.7-8.8
	C163.7,117.7,162,115.1,159.8,113.1L159.8,113.1z M108.2,86.9c0.5,2.3,1.8,3.6,3.3,4.1l20.1,6.9c6.2,2.1,9-6,2.8-8.1L117,83.9
	l-5.2-21.8c0,0-1-4.8-5.6-6.4c0,0-3.6-1.8-7.4,0.4L69.4,70.5c-1.9,1-3.4,2.8-4.2,5.1c-1.1,3.2-0.2,6.7,1.9,9.1l18,20l-0.8,2.4
	c-1.1,3.3,0.7,7,3.9,8.1c3.3,1.1,6.9-0.7,8-4l2.8-8.3c0,0,2.4-4.3-2-8.7L86.5,83l18.5-8.9L108.2,86.9z"/>
</svg>
