<?xml version="1.0" encoding="utf-8"?>
<!-- Generator: Adobe Illustrator 19.0.0, SVG Export Plug-In . SVG Version: 6.00 Build 0)  -->
<svg version="1.1" id="Layer_1" xmlns="http://www.w3.org/2000/svg" xmlns:xlink="http://www.w3.org/1999/xlink" x="0px" y="0px"
	 viewBox="0 0 200 200" style="enable-background:new 0 0 200 200;" xml:space="preserve">
<style type="text/css">
	.st0{fill-rule:evenodd;clip-rule:evenodd;}
</style>
<path id="XMLID_2_" class="st0" d="M125.2,58.2c9.1,0,16.4-7.4,16.4-16.4c0-9.1-7.4-16.4-16.4-16.4c-9.2,0-16.6,7.4-16.6,16.4
	C108.6,50.8,116,58.2,125.2,58.2L125.2,58.2z M154.7,60.4c-9.5,13.3-22.2,14.8-35.8,6.8c-0.9-0.6-5.1-2.9-6-3.5
	c-21.9-13-43.8-7.8-58.4,12.7c-6.2,8.8,8.1,17,14.3,8.4c7.5-10.7,17.2-13.7,27.8-10.4c-5.4,9.4-10.1,18.7-16.7,32
	c-6.6,13.1-21.4,23.7-35.5,15.5c-10.3-6-19.5,8.6-9.4,14.6c19.3,11.2,41.9,4.4,53.6-10.4c0.3,0.3,0.8,0.5,1.2,0.6
	c9.5,3.3,21.9,12.1,25.6,15.1c3.8,3.2,10.3,19,14,26.9c4.7,9.7,19.8,2.7,15.1-6.9c-4.4-9.1-11.6-27-17.4-31.5
	c-4.7-3.8-13.4-10.6-21-14.3c5-10,10.4-19.6,16-29.3c17.8,5.4,34.7-0.9,46.8-17.8C175.3,60.1,160.9,51.8,154.7,60.4L154.7,60.4z"/>
</svg>
