<?xml version="1.0" encoding="utf-8"?>
<!-- Generator: Adobe Illustrator 19.0.0, SVG Export Plug-In . SVG Version: 6.00 Build 0)  -->
<svg version="1.1" id="Layer_1" xmlns="http://www.w3.org/2000/svg" xmlns:xlink="http://www.w3.org/1999/xlink" x="0px" y="0px"
	 viewBox="0 0 200 200" style="enable-background:new 0 0 200 200;" xml:space="preserve">
<style type="text/css">
	.st0{fill-rule:evenodd;clip-rule:evenodd;}
</style>
<path id="XMLID_2_" class="st0" d="M145.7,55.6c-5.8-5.6-12.7-10.1-20.2-13.2c-7.9-3.2-16.2-4.8-24.7-4.8c-8.5,0-17,1.6-24.7,4.8
	c-7.6,3.1-14.4,7.6-20.2,13.2C50,61.3,45.4,67.9,42.3,75.3c-3.4,7.6-5.1,15.7-5.1,24c0,8.4,1.7,16.4,5.1,24.1
	c3.1,7.4,7.8,14,13.6,19.5c5.8,5.7,12.6,10.1,20.2,13.2c7.8,3.2,16.2,4.9,24.7,4.9c8.5,0,17-1.7,24.7-4.9
	c7.6-3.1,14.4-7.5,20.2-13.2c5.8-5.6,10.5-12.2,13.6-19.5c3.4-7.6,5-15.7,5-24.1c0-8.3-1.7-16.3-5-24
	C156.1,67.9,151.5,61.3,145.7,55.6L145.7,55.6z M65.6,51.5c0.6-0.4,1.2-0.8,1.8-1.3c3-2.1,6.5-3.8,10-5.2c7.4-3,15.4-4.5,23.4-4.5
	c5.3,0,10.9,0.6,16.1,2.1c-2.1,0.8-4.7,2.3-8.8,5.8c-3.5-0.4-7-0.4-10.5-0.1c-4.7,0.5-9.3,1.4-13.9,3c-4.1,1.4-7.4,3-9.6,4.3
	c-3.4-1.2-7.6-2.6-9.7-3.2C64.7,52.4,65.3,51.8,65.6,51.5L65.6,51.5z M123.5,66.9l-10.9,28.9l-26,4.8c-14.8-14.8-28.9-20.2-13.2-40
	c0.1,0,4.5-3.2,11.8-5.7c4.3-1.4,8.5-2.3,12.8-2.7c3.5-0.3,7-0.3,10.5,0.1L123.5,66.9z M42.5,97.2c-0.8,4.3-0.9,8.5-0.5,12.9
	c-0.5-1-0.9-1.8-1.3-2.6c-0.4-2.7-0.5-5.4-0.5-8.3c0-8.7,1.9-17,5.4-24.3c-0.4,3.9-0.3,7.9,0,11C44.2,89.6,43,93.3,42.5,97.2
	L42.5,97.2z M47.7,119.7c-0.5-2.2-1.3-5.4-1.7-9.2c-0.4-4.4-0.3-8.7,0.4-12.8c0.5-3.1,1.3-6.1,2.5-9.1c16.1-13.2,21.6,1.4,34.6,14.5
	l-2.2,23.2C62.2,132.6,60.4,137.6,47.7,119.7L47.7,119.7z M89.5,157.2c-5.2-0.9-10.2-2.6-15-4.8c-4.1-1.9-8-4.4-11.7-7.3
	c5.8-10.1-8.5-6,20.3-15.3l24.1,10.1C111.7,157.8,112.3,156.4,89.5,157.2L89.5,157.2z M150.6,132.8c-3.6,5-7.9,9.7-13.1,13.3
	c-18,12.3-22.8,7.3-26.4-7.3l17-17.2c19.4-1.7,22.1-7.1,23.6,9.7C151.3,131.9,150.9,132.3,150.6,132.8L150.6,132.8z M128.4,117.8
	l-12-20.5l10.9-28.9l15.4,1c3.2,2.6,6.1,5.6,8.5,8.7c3.1,4,5.4,8.4,7.1,13.1C154.9,120.2,153.6,115.6,128.4,117.8L128.4,117.8z
	 M158.9,83c-1.3-2.5-2.8-4.9-4.5-7.1c-2.8-3.6-6.1-6.9-9.8-9.8c-0.7-3.2-2.5-8.4-7.5-13.9c0.1,0,0.1,0.1,0.3,0.1
	c0.3,0.3,0.7,0.5,0.9,0.8c3.5,2.6,6.6,5.6,9.4,8.9c5.2,6.1,9.1,13.2,11.4,20.8C158.9,82.8,158.9,83,158.9,83L158.9,83z"/>
</svg>
