<?xml version="1.0" encoding="utf-8"?>
<!-- Generator: Adobe Illustrator 19.0.0, SVG Export Plug-In . SVG Version: 6.00 Build 0)  -->
<svg version="1.1" id="Layer_1" xmlns="http://www.w3.org/2000/svg" xmlns:xlink="http://www.w3.org/1999/xlink" x="0px" y="0px"
	 viewBox="0 0 200 200" style="enable-background:new 0 0 200 200;" xml:space="preserve">
<style type="text/css">
	.st0{fill-rule:evenodd;clip-rule:evenodd;}
</style>
<path id="XMLID_5_" class="st0" d="M18.6,156c0.9,0.8,11-8.9,12-11.3c0.2,0,0.5,0,0.6,0c1.6-0.2,3-1.1,3.9-2.3
	c3.6-5.2,9.4-9.1,16-11.3c3.8-1.3,7.7-1.9,11.6-1.9c14.1,0,26.3,8.3,38.9,13.1c6.9,2.7,13.9,4.5,21.7,4.5c3.3,0,6.6-0.3,10-1.1
	c8.3-1.7,15.3-5.6,20.3-11.1c1.3-1.4,8.9-10,9.9-11.4c1.7-2.7,1.1-6.1-1.6-7.8c-0.9-0.8-2-0.9-3.1-0.9c-1.9,0-3.6,0.8-4.7,2.5
	c-0.5,0.6-0.9,1.3-1.4,1.9c-3.6,4.2-15.3,14.5-21.7,16c-5.9,1.2-12.4,0.8-18.1-0.6c-6.1-1.6-12-4.2-18.3-7c-6.6-3-13.4-6.1-20.8-8
	c-3.6-0.9-7.3-1.4-11.1-1.4c-5,0-10.3,0.8-15.2,2.5c-4.4,1.4-8.3,3.4-11.9,5.9c-3.9,2.7-7,5.9-9.7,9.5c-0.2,0.2-0.3,0.5-0.5,0.8
	C24.2,138.9,16.2,154.2,18.6,156L18.6,156z M148.4,73.1c0-10.9,8.8-19.9,19.9-19.9c10.9,0,19.7,8.9,19.7,19.9
	c0,10.9-8.8,19.9-19.7,19.9C157.1,92.9,148.4,84,148.4,73.1L148.4,73.1z M73.2,70.6l37.5-7.7l0.6,2.3l1.9,21
	c-0.6-0.3-43,11.7-51.8,14.1c4.7,2.7,10.9,5,18.6,7c24.9,6.7,43.2,2.8,59.3,3.8L122,53.5l-0.2,0.2l-0.2-0.3
	c-0.9-3.3-4.2-5.3-7.7-4.7l-43.5,8.9c-3.6,0.6-5.9,4.2-5.2,7.8C66.1,68.8,69.6,71.2,73.2,70.6L73.2,70.6z"/>
</svg>
