<?xml version="1.0" encoding="utf-8"?>
<!-- Generator: Adobe Illustrator 19.0.0, SVG Export Plug-In . SVG Version: 6.00 Build 0)  -->
<svg version="1.1" id="Layer_1" xmlns="http://www.w3.org/2000/svg" xmlns:xlink="http://www.w3.org/1999/xlink" x="0px" y="0px"
	 viewBox="0 0 200 200" style="enable-background:new 0 0 200 200;" xml:space="preserve">
<style type="text/css">
	.st0{fill-rule:evenodd;clip-rule:evenodd;fill:#221F20;}
</style>
<path id="XMLID_2_" class="st0" d="M144.6,82.3c5,5,13,4.8,17.8-0.2c5-5,4.8-13-0.2-17.8c-5-5-13-4.8-17.8,0.2
	C139.7,69.4,139.7,77.4,144.6,82.3L144.6,82.3z M147,162.6l14.6-14.9l-34.6-33.8c5.1-8.1,7.9-17.5,7.9-27.8
	c-0.3-28.1-23.3-50.4-51.2-50.1c-28.1,0.3-50.4,23.1-50.1,51.2c0.3,27.9,23.1,50.4,51.2,50.1c10.2-0.2,19.7-3.3,27.6-8.5L147,162.6z
	"/>
</svg>
