<?xml version="1.0" encoding="utf-8"?>
<!-- Generator: Adobe Illustrator 19.0.0, SVG Export Plug-In . SVG Version: 6.00 Build 0)  -->
<svg version="1.1" id="Layer_1" xmlns="http://www.w3.org/2000/svg" xmlns:xlink="http://www.w3.org/1999/xlink" x="0px" y="0px"
	 viewBox="0 0 200 200" style="enable-background:new 0 0 200 200;" xml:space="preserve">
<style type="text/css">
	.st0{fill-rule:evenodd;clip-rule:evenodd;}
</style>
<path id="XMLID_2_" class="st0" d="M121.4,140.1v27c0,3-2.5,5.6-5.6,5.6c-3.2,0-5.8-2.5-5.8-5.6v-24.3L96.7,133
	c-1.2,0.3-2.5,0.7-3.9,0.7l0,0l-5.1,15.9c-0.3,1.2-1.2,2.4-2.2,3l-21.5,14.9c-0.8,0.7-2,0.8-3.2,0.8c-1.7,0-3.5-0.8-4.6-2.4
	c-1.9-2.5-1.2-6.1,1.4-7.8l19.9-13.9l5.2-16.7c-1-1.9-1.5-4.1-1.2-6.4l4.2-39.1l-10.6,5.7l6.1,16.4c1.2,2.9-0.3,6.1-3.2,7.3
	c-0.7,0.2-1.3,0.3-2,0.3c-2.4,0-4.4-1.4-5.2-3.7l-7.8-21c-1-2.5,0-5.6,2.5-6.9c0,0,17.3-10.8,22.3-12.8c5.6-2,15.6-1.7,22.3,4.1
	c2.7,2.4,13,15.6,13,15.6h19.4c3,0,5.6,2.5,5.6,5.6c0,3.2-2.5,5.8-5.6,5.8h-21.8c-1.7,0-3.2-0.7-4.2-1.9l-8.5-9.3l-4.2,36.5
	c0,0.2,0,0.3,0,0.5l15.2,11.3C120.6,136.5,121.4,138.2,121.4,140.1L121.4,140.1z M100.8,59.4c9,0,16.1-7.3,16.1-16.1
	c0-9-7.1-16.1-16.1-16.1c-8.8,0-16.1,7.1-16.1,16.1C84.7,52.2,92,59.4,100.8,59.4L100.8,59.4z"/>
</svg>
