<?xml version="1.0" encoding="utf-8"?>
<!-- Generator: Adobe Illustrator 19.0.0, SVG Export Plug-In . SVG Version: 6.00 Build 0)  -->
<svg version="1.1" id="Layer_1" xmlns="http://www.w3.org/2000/svg" xmlns:xlink="http://www.w3.org/1999/xlink" x="0px" y="0px"
	 viewBox="0 0 200 200" style="enable-background:new 0 0 200 200;" xml:space="preserve">
<style type="text/css">
	.st0{fill:#221F20;}
</style>
<path id="XMLID_2_" class="st0" d="M38,118.8h4.4v-15.4h5.9v15.4h17.3v-16.2C65.6,89.1,76.7,78,90.2,78h21.1
	c13.5,0,24.6,11.1,24.6,24.6v16.2h17.3v-16.9h5.9v16.9h4.4v-17.2h6v35.8h-6v-12.4h-4.4v12.5h-5.9v-12.5h-19.9
	c-0.9,0.5-1.8,0.8-3,0.8c-1,0-1.9-0.3-2.9-0.8h-7.2v32c0,3.3-2.5,5.9-5.7,5.9c-3.1,0-5.7-2.6-5.7-5.9v-24.6c0-3.4-2.1-6.3-5.1-7.4
	h-6c-3,1.2-5.1,4-5.1,7.4v24.6c0,3.3-2.6,5.9-5.7,5.9c-3.3,0-5.7-2.6-5.7-5.9v-32h-7.2c-0.9,0.5-1.8,0.8-2.9,0.8
	c-1.2,0-2.1-0.3-3-0.8H48.3v14.2h-5.9v-14.2H38v14.2h-6v-35.8h6V118.8z M81.9,54.6c0-10.4,8.5-18.9,18.9-18.9
	c10.4,0,18.9,8.5,18.9,18.9c0,10.4-8.5,18.9-18.9,18.9C90.4,73.5,81.9,65,81.9,54.6L81.9,54.6z M76.7,118.8h4.6V98.4
	c0-1.2-1-2.2-2.2-2.2c-1.3,0-2.3,1-2.3,2.2V118.8z M120.3,118.8h4.6V98.4c0-1.2-1-2.2-2.3-2.2c-1.2,0-2.2,1-2.2,2.2V118.8z"/>
</svg>
