<?xml version="1.0" encoding="utf-8"?>
<!-- Generator: Adobe Illustrator 19.0.0, SVG Export Plug-In . SVG Version: 6.00 Build 0)  -->
<svg version="1.1" id="Layer_1" xmlns="http://www.w3.org/2000/svg" xmlns:xlink="http://www.w3.org/1999/xlink" x="0px" y="0px"
	 viewBox="0 0 50 50" style="enable-background:new 0 0 50 50;" xml:space="preserve">
<style type="text/css">
	.st0{fill:#FFFFFF;}
	.st1{fill:url(#XMLID_5_);}
	.st2{fill:url(#XMLID_6_);}
</style>
<path id="XMLID_1_" class="st0" d="M35,50H15C6.8,50,0,43.3,0,35V15.1c0-8.3,6.8-15,15-15h20c8.3,0,15,6.8,15,15V35
	C50,43.3,43.3,50,35,50z"/>
<g id="XMLID_3_">
	<linearGradient id="XMLID_5_" gradientUnits="userSpaceOnUse" x1="25.1988" y1="43.3994" x2="25.1988" y2="7.3897">
		<stop  offset="0" style="stop-color:#00516E"/>
		<stop  offset="1" style="stop-color:#0080B7"/>
	</linearGradient>
	<path id="XMLID_4_" class="st1" d="M33.4,28.3c-1,3.8-4,6.3-7.8,6.3c-4.9,0-8.4-3.8-8.4-9.1c0-5.3,3.6-9.2,8.4-9.2
		c3.6,0,6.6,2.3,7.8,5.8H43c-0.2-1.2-0.5-2.4-0.9-3.5c-2.5-6.7-8.7-11.1-16.4-11.1c-10.5,0-18.3,7.7-18.3,18c0,10.3,7.8,18,18.3,18
		c3.6,0,6.9-1,9.6-2.7c4.2-2.6,7-7,7.8-12.5H33.4z"/>
</g>
<linearGradient id="XMLID_6_" gradientUnits="userSpaceOnUse" x1="43.0687" y1="26.5869" x2="13.1595" y2="26.5869">
	<stop  offset="0" style="stop-color:#26A9E0"/>
	<stop  offset="1" style="stop-color:#1B75BB"/>
</linearGradient>
<path id="XMLID_12_" class="st2" d="M43.1,28.3c-0.8,5.4-3.7,9.8-7.8,12.5c-2,0.9-4.2,1.4-6.5,1.4c-8.6,0-15.6-7-15.6-15.5
	S20.1,11,28.7,11c5.6,0,10.6,3,13.3,7.4c0.4,1.1,0.7,2.3,0.9,3.5h-9.6c-1.2-3.5-4.1-5.8-7.8-5.8c-4.9,0-8.4,3.9-8.4,9.2
	c0,5.3,3.6,9.1,8.4,9.1c3.8,0,6.8-2.5,7.8-6.3H43.1z"/>
</svg>
